<svg width="106" height="27" viewBox="0 0 106 27" fill="none" xmlns="http://www.w3.org/2000/svg">
<path d="M0.546 19.034C0.564667 18.5673 0.690667 18.0447 0.924 17.466C1.16667 16.8873 1.44667 16.43 1.764 16.094C2.38 16.4113 3.01467 16.6867 3.668 16.92C4.33067 17.144 4.98867 17.256 5.642 17.256C6.18333 17.256 6.58933 17.1627 6.86 16.976C7.14 16.7893 7.28 16.556 7.28 16.276C7.28 16.0053 7.182 15.7673 6.986 15.562C6.79 15.3473 6.46333 15.1607 6.006 15.002L4.452 14.442C3.79867 14.1993 3.206 13.896 2.674 13.532C2.142 13.1587 1.722 12.706 1.414 12.174C1.106 11.6327 0.952 10.9887 0.952 10.242C0.952 9.29 1.176 8.46867 1.624 7.778C2.072 7.08733 2.702 6.55533 3.514 6.182C4.326 5.79933 5.278 5.608 6.37 5.608C7.25667 5.608 8.18533 5.72933 9.156 5.972C10.1267 6.21467 10.9153 6.48533 11.522 6.784C11.5407 7.12 11.4987 7.49333 11.396 7.904C11.2933 8.31467 11.144 8.69267 10.948 9.038C10.7613 9.38333 10.5513 9.64467 10.318 9.822C9.73933 9.56067 9.10933 9.32267 8.428 9.108C7.74667 8.884 7.07467 8.772 6.412 8.772C6.03867 8.772 5.754 8.86067 5.558 9.038C5.362 9.21533 5.264 9.42533 5.264 9.668C5.264 9.91067 5.348 10.116 5.516 10.284C5.684 10.452 5.95467 10.6013 6.328 10.732L8.064 11.348C9.128 11.7213 10.0147 12.2673 10.724 12.986C11.4333 13.7047 11.788 14.6613 11.788 15.856C11.788 17.2467 11.2513 18.3573 10.178 19.188C9.114 20.0093 7.63467 20.42 5.74 20.42C4.74133 20.42 3.78933 20.28 2.884 20C1.988 19.7293 1.20867 19.4073 0.546 19.034ZM15.5081 4.446C15.5081 3.47533 15.6854 2.794 16.0401 2.402C16.4041 2.01 17.0154 1.814 17.8741 1.814H19.5821L19.7781 2.01V15.492C19.7781 15.912 19.8714 16.2387 20.0581 16.472C20.2541 16.696 20.5761 16.808 21.0241 16.808H22.5921C22.8254 17.4893 22.9421 18.18 22.9421 18.88C22.9421 19.0387 22.9327 19.2067 22.9141 19.384C22.9047 19.5613 22.8767 19.72 22.8301 19.86C22.3167 19.9253 21.7241 19.986 21.0521 20.042C20.3801 20.1073 19.7641 20.14 19.2041 20.14C17.9347 20.14 17.0014 19.8273 16.4041 19.202C15.8067 18.5673 15.5081 17.5827 15.5081 16.248V4.446ZM23.0961 6C23.2267 6.49467 23.2921 7.00333 23.2921 7.526C23.2921 8.09533 23.2267 8.62267 23.0961 9.108L17.8741 9.024L13.3101 9.108C13.1887 8.61333 13.1281 8.086 13.1281 7.526C13.1281 7.022 13.1887 6.51333 13.3101 6L18.0001 6.07L23.0961 6ZM28.0153 14.428V11.418H33.2933V11.096C33.2933 10.6667 33.2326 10.2747 33.1113 9.92C32.99 9.556 32.794 9.26667 32.5233 9.052C32.262 8.828 31.9073 8.716 31.4593 8.716C30.778 8.716 30.2973 8.996 30.0173 9.556C29.7466 10.116 29.6113 10.9793 29.6113 12.146V13.462C29.6113 14.0967 29.6673 14.6893 29.7793 15.24C29.8913 15.7907 30.1293 16.234 30.4933 16.57C30.8573 16.906 31.4126 17.074 32.1593 17.074C32.794 17.074 33.4146 16.9947 34.0213 16.836C34.6373 16.668 35.2253 16.4673 35.7853 16.234C36.112 16.5513 36.3733 16.9527 36.5693 17.438C36.7653 17.9233 36.896 18.3853 36.9613 18.824C36.252 19.3373 35.4026 19.7293 34.4133 20C33.4333 20.28 32.444 20.42 31.4453 20.42C30.2133 20.42 29.196 20.2193 28.3933 19.818C27.5906 19.4073 26.956 18.8567 26.4893 18.166C26.0226 17.466 25.6913 16.682 25.4953 15.814C25.3086 14.9367 25.2153 14.036 25.2153 13.112C25.2153 11.7027 25.4253 10.4333 25.8453 9.304C26.2746 8.16533 26.9513 7.26467 27.8753 6.602C28.7993 5.93933 30.0033 5.608 31.4873 5.608C32.7193 5.608 33.7693 5.86933 34.6373 6.392C35.5053 6.91467 36.168 7.624 36.6253 8.52C37.092 9.40667 37.3253 10.4147 37.3253 11.544C37.3253 12.1693 37.2926 12.692 37.2273 13.112C37.1713 13.5227 37.078 13.9613 36.9473 14.428H28.0153ZM42.1299 5.832C43.0166 5.832 43.7259 6.16333 44.2579 6.826C44.7993 7.47933 45.0699 8.38 45.0699 9.528V23.416C45.0699 24.3867 44.8833 25.068 44.5099 25.46C44.1459 25.852 43.5346 26.048 42.6759 26.048H40.9679L40.7719 25.852V6.028L40.9679 5.832H42.1299ZM53.2739 12.846C53.2739 14.4513 53.0173 15.8093 52.5039 16.92C51.9999 18.0213 51.3233 18.8567 50.4739 19.426C49.6246 19.9953 48.6866 20.28 47.6599 20.28C46.6893 20.28 45.8259 20.0793 45.0699 19.678C44.3233 19.2673 43.6419 18.8753 43.0259 18.502L43.7259 15.408C44.2766 15.8467 44.8273 16.2247 45.3779 16.542C45.9379 16.8593 46.4419 17.018 46.8899 17.018C47.3473 17.018 47.7113 16.85 47.9819 16.514C48.2619 16.1687 48.4673 15.6833 48.5979 15.058C48.7286 14.4233 48.7939 13.6767 48.7939 12.818C48.7939 11.95 48.7193 11.2453 48.5699 10.704C48.4299 10.1533 48.2293 9.752 47.9679 9.5C47.7159 9.248 47.4266 9.122 47.0999 9.122C46.8106 9.122 46.4653 9.21067 46.0639 9.388C45.6719 9.56533 45.2846 9.91067 44.9019 10.424C44.5286 10.928 44.2159 11.6747 43.9639 12.664L42.9839 10.186C43.0773 9.43 43.3666 8.702 43.8519 8.002C44.3373 7.302 44.9579 6.728 45.7139 6.28C46.4793 5.832 47.3193 5.608 48.2339 5.608C49.3726 5.608 50.3153 5.916 51.0619 6.532C51.8086 7.148 52.3639 8.002 52.7279 9.094C53.0919 10.1767 53.2739 11.4273 53.2739 12.846ZM61.7183 20C61.4103 20.056 61.0603 20.098 60.6683 20.126C60.2857 20.154 59.9077 20.168 59.5343 20.168C59.1703 20.168 58.7923 20.154 58.4003 20.126C58.0177 20.098 57.663 20.056 57.3363 20V10.732C57.3363 10.2653 57.2383 9.878 57.0423 9.57C56.8557 9.262 56.515 9.108 56.0203 9.108H55.6003C55.479 8.632 55.4183 8.13733 55.4183 7.624C55.4183 7.38133 55.4323 7.12467 55.4603 6.854C55.4883 6.574 55.535 6.308 55.6003 6.056C56.0297 6.00933 56.4683 5.97667 56.9163 5.958C57.3737 5.93 57.7563 5.916 58.0643 5.916H58.6663C59.609 5.916 60.351 6.21933 60.8923 6.826C61.443 7.42333 61.7183 8.23533 61.7183 9.262V20ZM56.4963 2.094C56.4963 1.83267 56.5243 1.562 56.5803 1.282C56.6363 0.992666 56.7157 0.717333 56.8183 0.456C57.061 0.334666 57.3737 0.231999 57.7563 0.147999C58.1483 0.0639991 58.531 0.0219994 58.9043 0.0219994C59.287 0.0219994 59.6743 0.0639991 60.0663 0.147999C60.4677 0.231999 60.7757 0.334666 60.9903 0.456C61.093 0.717333 61.1723 0.997333 61.2283 1.296C61.2843 1.58533 61.3123 1.85133 61.3123 2.094C61.3123 2.346 61.2843 2.61667 61.2283 2.906C61.1723 3.19533 61.093 3.466 60.9903 3.718C60.7757 3.83933 60.4677 3.942 60.0663 4.026C59.6743 4.11 59.287 4.152 58.9043 4.152C58.531 4.152 58.1437 4.11467 57.7423 4.04C57.341 3.956 57.033 3.84867 56.8183 3.718C56.7157 3.466 56.6363 3.19533 56.5803 2.906C56.5243 2.61667 56.4963 2.346 56.4963 2.094ZM67.7062 5.832C68.5462 5.832 69.1762 6.12133 69.5962 6.7C70.0255 7.26933 70.2402 8.03933 70.2402 9.01V20C69.9322 20.056 69.5822 20.098 69.1902 20.126C68.8075 20.154 68.4295 20.168 68.0562 20.168C67.6922 20.168 67.3142 20.154 66.9222 20.126C66.5395 20.098 66.1849 20.056 65.8582 20V6.028L66.0542 5.832H67.7062ZM77.8982 16.5C77.8982 17.0413 77.9495 17.5547 78.0522 18.04C78.1549 18.516 78.3369 18.9313 78.5982 19.286C78.2809 19.5473 77.8842 19.7713 77.4082 19.958C76.9322 20.1353 76.4189 20.224 75.8682 20.224C74.9909 20.224 74.3795 19.9907 74.0342 19.524C73.6889 19.0573 73.5162 18.3853 73.5162 17.508V11.558C73.5162 10.9233 73.4322 10.4567 73.2642 10.158C73.1055 9.85 72.7929 9.696 72.3262 9.696C72.0369 9.696 71.7009 9.77533 71.3182 9.934C70.9449 10.0833 70.5669 10.3353 70.1842 10.69C69.8109 11.0447 69.4795 11.516 69.1902 12.104V8.268C69.8529 7.63333 70.5669 7.05933 71.3322 6.546C72.1069 6.03267 72.9889 5.776 73.9782 5.776C74.8369 5.776 75.5555 5.99067 76.1342 6.42C76.7129 6.84 77.1515 7.42333 77.4502 8.17C77.7489 8.91667 77.8982 9.78 77.8982 10.76V16.5ZM82.5987 4.446C82.5987 3.47533 82.776 2.794 83.1307 2.402C83.4947 2.01 84.106 1.814 84.9647 1.814H86.6727L86.8687 2.01V15.492C86.8687 15.912 86.962 16.2387 87.1487 16.472C87.3447 16.696 87.6667 16.808 88.1147 16.808H89.6827C89.916 17.4893 90.0327 18.18 90.0327 18.88C90.0327 19.0387 90.0234 19.2067 90.0047 19.384C89.9954 19.5613 89.9674 19.72 89.9207 19.86C89.4074 19.9253 88.8147 19.986 88.1427 20.042C87.4707 20.1073 86.8547 20.14 86.2947 20.14C85.0254 20.14 84.092 19.8273 83.4947 19.202C82.8974 18.5673 82.5987 17.5827 82.5987 16.248V4.446ZM90.1867 6C90.3174 6.49467 90.3827 7.00333 90.3827 7.526C90.3827 8.09533 90.3174 8.62267 90.1867 9.108L84.9647 9.024L80.4007 9.108C80.2794 8.61333 80.2187 8.086 80.2187 7.526C80.2187 7.022 80.2794 6.51333 80.4007 6L85.0907 6.07L90.1867 6ZM105.242 13.014C105.242 14.5073 104.995 15.8093 104.5 16.92C104.005 18.0307 103.277 18.894 102.316 19.51C101.364 20.1167 100.183 20.42 98.7739 20.42C97.3553 20.42 96.1653 20.112 95.2039 19.496C94.2426 18.88 93.5193 18.0167 93.0339 16.906C92.5486 15.7953 92.3059 14.498 92.3059 13.014C92.3059 11.5113 92.5486 10.2093 93.0339 9.108C93.5286 7.99733 94.2566 7.13867 95.2179 6.532C96.1793 5.916 97.3646 5.608 98.7739 5.608C100.193 5.608 101.383 5.916 102.344 6.532C103.305 7.148 104.029 8.01133 104.514 9.122C104.999 10.2233 105.242 11.5207 105.242 13.014ZM96.7999 13.014C96.7999 13.7793 96.8419 14.4747 96.9259 15.1C97.0193 15.7253 97.2059 16.2247 97.4859 16.598C97.7753 16.962 98.2046 17.144 98.7739 17.144C99.3526 17.144 99.7819 16.962 100.062 16.598C100.342 16.2247 100.524 15.7253 100.608 15.1C100.701 14.4747 100.748 13.7793 100.748 13.014C100.748 12.2393 100.701 11.5393 100.608 10.914C100.524 10.2887 100.342 9.794 100.062 9.43C99.7819 9.05667 99.3526 8.87 98.7739 8.87C98.2046 8.87 97.7753 9.05667 97.4859 9.43C97.2059 9.794 97.0193 10.2887 96.9259 10.914C96.8419 11.5393 96.7999 12.2393 96.7999 13.014Z" fill="#0F0F0F"/>
</svg>
